#!OML:ASF F:\VICON\USERDATA\INSTALL\rory3\rory3.ASF
:FULLY-SPECIFIED
:DEGREES
1
root 0.0698197 17.1484 -28.7254 2.75877 -11.2637 0.792947
lowerback 19.9439 -1.37588 -4.36177
upperback 1.94743 -2.64629 1.3865
thorax -8.78074 -1.08417 4.71735
lowerneck -0.0758511 3.10286 -0.702502
upperneck -14.1528 3.88601 -2.0411
head -4.63678 2.03456 -0.719609
rclavicle 1.82633e-014 -1.5207e-014
rhumerus -39.4875 12.2056 -84.4433
rradius 104.512
rwrist -12.9307
rhand -40.5322 31.2647
rfingers 7.12502
rthumb -13.4808 1.72096
lclavicle 1.82633e-014 -1.5207e-014
lhumerus -40.1972 -14.8487 95.7357
lradius 105.59
lwrist 20.9361
lhand -36.4737 12.664
lfingers 7.12502
lthumb -9.56685 42.4268
rfemur -31.8118 7.41635 23.5637
rtibia 48.0295
rfoot -12.7194 -4.82549
rtoes 4.90396
lfemur 3.01648 12.0344 -21.9301
ltibia 96.724
lfoot 24.6598 6.3636
ltoes 2.01863
2
root 0.0634689 17.0781 -28.2576 2.73675 -11.8229 -0.232455
lowerback 20.3587 -1.01793 -3.44983
upperback 2.28157 -1.97712 1.49349
thorax -8.73815 -0.803478 4.14388
lowerneck -0.890418 3.01418 0.14959
upperneck -14.1161 3.76501 -2.36825
head -4.43771 1.943 -0.954221
rclavicle -5.79209e-014 8.00108e-015
rhumerus -36.3219 13.1072 -84.5405
rradius 104.924
rwrist -12.766
rhand -40.9633 31.4762
rfingers 7.12502
rthumb -13.8962 1.96053
lclavicle -5.79209e-014 8.00108e-015
lhumerus -40.8658 -14.422 95.5038
lradius 104.914
lwrist 20.6038
lhand -36.2172 13.0751
lfingers 7.12502
lthumb -9.31942 42.8492
rfemur -30.037 8.06672 24.5319
rtibia 48.8061
rfoot -14.7839 -4.79666
rtoes 7.35183
lfemur 0.623486 13.54 -19.3889
ltibia 101.058
lfoot 23.4365 3.82638
ltoes -1.43002
3
root 0.0517688 17.0397 -27.7742 3.08846 -11.7362 -1.32066
lowerback 19.9621 -1.14553 -2.16186
upperback 2.57799 -1.85213 1.50091
thorax -8.25043 -0.804658 3.35694
lowerneck -1.33701 3.11038 0.6797
upperneck -13.9975 3.92472 -2.27781
head -4.29523 1.98965 -1.00824
rclavicle 2.91965e-015 -2.05245e-014
rhumerus -33.0668 14.3795 -84.9273
rradius 105.163
rwrist -12.5669
rhand -41.4552 32.0911
rfingers 7.12502
rthumb -14.3703 2.60855
lclavicle 2.91965e-015 -2.05245e-014
lhumerus -41.7606 -13.3469 94.7412
lradius 104.519
lwrist 21.0795
lhand -34.61 13.5544
lfingers 7.12502
lthumb -7.76837 43.3917
rfemur -28.3672 7.97367 25.6004
rtibia 49.0138
rfoot -16.4857 -5.01484
rtoes 7.0075
lfemur -2.54254 14.7345 -16.6616
ltibia 105.041
lfoot 23.108 0.56029
ltoes -1.95548
4
root 0.0392686 17.0104 -27.287 3.46116 -10.925 -2.27722
lowerback 19.4221 -1.58277 -0.86105
upperback 2.77529 -2.1382 1.58893
thorax -7.76736 -0.991464 2.75631
lowerneck -1.46779 3.22637 0.948215
upperneck -13.9473 4.0983 -2.2073
head -4.24431 2.05899 -1.03226
rclavicle -1.46107e-014 2.29596e-014
rhumerus -29.9591 15.8696 -85.0946
rradius 105.392
rwrist -12.2174
rhand -41.1469 31.6264
rfingers 7.12502
rthumb -14.0732 2.12288
lclavicle -1.46107e-014 2.29596e-014
lhumerus -42.7582 -12.2775 94.1558
lradius 104.146
lwrist 21.7913
lhand -34.5783 13.9642
lfingers 7.12502
lthumb -7.7378 43.8026
rfemur -26.7623 7.26825 26.5968
rtibia 49.2845
rfoot -18.0664 -5.47559
rtoes 3.81608
lfemur -5.89135 15.1374 -14.3498
ltibia 108.624
lfoot 22.674 -2.01275
ltoes 1.15459
5
root 0.025729 16.9585 -26.8261 3.64335 -9.87241 -2.82682
lowerback 19.648 -1.96047 -0.481341
upperback 2.47444 -2.50559 2.0778
thorax -8.19299 -1.16159 3.18511
lowerneck -0.757605 3.28732 0.360018
upperneck -13.8699 4.17736 -2.13994
head -4.3677 2.12796 -0.926166
rclavicle 2.61961e-014 -8.22161e-015
rhumerus -27.848 17.8505 -84.6354
rradius 105.895
rwrist -11.8621
rhand -40.5679 30.851
rfingers 7.12502
rthumb -13.5152 1.30957
lclavicle 2.61961e-014 -8.22161e-015
lhumerus -44.3728 -10.8693 94.4273
lradius 103.735
lwrist 22.9274
lhand -35.4855 12.2172
lfingers 7.12502
lthumb -8.61334 42.0215
rfemur -25.2371 6.48903 27.2776
rtibia 49.4808
rfoot -19.1325 -6.74971
rtoes 1.36372
lfemur -9.34946 14.6793 -13.2587
ltibia 111.829
lfoot 21.7596 -3.04924
ltoes 5.84216
6
root 0.0165865 16.9174 -26.3583 3.7353 -8.90396 -2.92485
lowerback 19.9195 -2.23259 -0.6918
upperback 2.03287 -2.84968 2.6149
thorax -8.76739 -1.29356 4.01472
lowerneck 0.20563 3.29406 -0.458951
upperneck -13.7665 4.14753 -2.1879
head -4.53844 2.16035 -0.820504
rclavicle 1.34925e-014 -7.25564e-015
rhumerus -25.9955 19.9123 -83.9223
rradius 106.36
rwrist -11.6148
rhand -40.1916 31.1925
rfingers 7.12502
rthumb -13.1525 1.6273
lclavicle 1.34925e-014 -7.25564e-015
lhumerus -46.1895 -9.50396 94.988
lradius 104.096
lwrist 25.0368
lhand -35.1304 14.3471
lfingers 7.12502
lthumb -8.27057 44.1652
rfemur -23.7553 5.41951 27.6044
rtibia 49.4829
rfoot -19.3528 -9.05679
rtoes -7.26561
lfemur -12.6666 13.9851 -13.0998
ltibia 114.365
lfoot 20.8107 -3.36606
ltoes 9.7324
7
root 0.00962636 16.9002 -25.8721 3.95667 -8.23368 -3.11803
lowerback 19.6455 -2.24983 -0.490955
upperback 1.86586 -2.80188 2.89572
thorax -8.80025 -1.27047 4.18671
lowerneck 0.0851259 3.09113 -0.629638
upperneck -13.1931 3.85097 -2.40302
head -4.30698 2.02989 -0.837158
rclavicle 5.95857e-014 -2.38542e-014
rhumerus -23.6843 21.0283 -83.2416
rradius 106.636
rwrist -10.8961
rhand -40.0404 31.3799
rfingers 7.12502
rthumb -13.0068 1.80534
lclavicle 5.95857e-014 -2.38542e-014
lhumerus -47.4446 -9.16061 95.4067
lradius 104.272
lwrist 27.2626
lhand -34.9196 14.2086
lfingers 7.12502
lthumb -8.06718 44.0346
rfemur -21.674 5.20404 27.6723
rtibia 49.3051
rfoot -21.1607 -8.61847
rtoes -3.17546
lfemur -16.0346 13.7773 -12.8071
ltibia 116.273
lfoot 20.3713 -4.13782
ltoes 12.186
8
root 0.00329416 16.9128 -25.3747 4.36911 -7.8478 -3.45285
lowerback 19.0758 -1.91085 0.193825
upperback 1.88779 -2.22649 2.80951
thorax -8.53499 -1.0269 3.51951
lowerneck -1.19285 2.59287 0.0792867
upperneck -12.0949 3.20985 -2.60976
head -3.65682 1.6776 -0.959447
rclavicle 1.41634e-014 -2.80286e-014
rhumerus -21.378 20.7357 -82.6552
rradius 107.166
rwrist -9.87496
rhand -39.9299 31.7394
rfingers 7.12502
rthumb -12.9002 2.15816
lclavicle 1.41634e-014 -2.80286e-014
lhumerus -48.2043 -10.1729 95.5215
lradius 104.473
lwrist 29.5367
lhand -34.4578 14.3325
lfingers 7.12502
lthumb -7.62143 44.1752
rfemur -19.9018 4.88584 28.0319
rtibia 48.729
rfoot -21.3424 -9.87901
rtoes -7.10802
lfemur -19.8805 13.8635 -12.6166
ltibia 117.586
lfoot 18.7768 -5.36423
ltoes 8.57705
9
root -0.00585061 16.932 -24.895 4.63865 -7.42416 -3.92983
lowerback 18.9136 -1.60488 0.788579
upperback 1.79395 -1.69484 2.86469
thorax -8.59428 -0.790676 3.09966
lowerneck -1.63417 2.18629 0.469948
upperneck -11.5871 2.67766 -2.65033
head -3.39796 1.39437 -1.00988
rclavicle 2.08724e-015 1.5704e-014
rhumerus -19.8932 20.5555 -82.1062
rradius 108.084
rwrist -8.72859
rhand -40.1469 33.5977
rfingers 7.12502
rthumb -13.1093 4.02972
lclavicle 2.08724e-015 1.5704e-014
lhumerus -49.1322 -10.886 95.723
lradius 104.821
lwrist 31.2915
lhand -34.3956 14.7037
lfingers 7.12502
lthumb -7.56143 44.5486
rfemur -17.8725 4.76244 28.5773
rtibia 47.8368
rfoot -21.0013 -10.8058
rtoes -10.3935
lfemur -23.628 13.7838 -12.3382
ltibia 118.407
lfoot 16.0629 -6.51529
ltoes 5.50986
10
root -0.00869626 16.9716 -24.4118 4.75287 -7.20696 -4.45089
lowerback 19.0092 -1.36199 1.21855
upperback 1.55546 -1.25313 3.0935
thorax -8.93323 -0.585918 3.00164
lowerneck -1.33898 2.00909 0.428663
upperneck -11.2893 2.44232 -2.68872
head -3.35388 1.28195 -1.01
rclavicle 1.48095e-014 2.22639e-014
rhumerus -19.072 21.0016 -81.597
rradius 109.054
rwrist -7.6751
rhand -40.9542 36.2293
rfingers 7.12502
rthumb -13.8875 6.713
lclavicle 1.48095e-014 2.22639e-014
lhumerus -50.5066 -10.8974 96.1744
lradius 105.396
lwrist 32.4843
lhand -34.613 14.2494
lfingers 7.12502
lthumb -7.77123 44.0866
rfemur -15.4208 5.03398 29.1008
rtibia 46.6006
rfoot -20.7388 -10.3847
rtoes -11.3137
lfemur -26.7829 13.8027 -12.0094
ltibia 118.564
lfoot 13.9217 -7.76982
ltoes -5.74568
11
root -0.00746206 17.0516 -23.9029 4.71095 -7.21076 -4.88806
lowerback 19.115 -0.928136 1.81682
upperback 1.45283 -0.550444 3.05709
thorax -9.13927 -0.273011 2.44137
lowerneck -1.75728 1.7146 0.814101
upperneck -10.5452 2.06729 -2.69893
head -3.02277 1.0761 -1.05373
rclavicle -3.43897e-014 2.16675e-014
rhumerus -18.3344 20.8575 -81.2525
rradius 110.094
rwrist -6.59597
rhand -41.6455 37.6925
rfingers 7.12502
rthumb -14.5536 8.22306
lclavicle -3.43897e-014 2.16675e-014
lhumerus -51.5664 -11.6042 96.3591
lradius 105.964
lwrist 33.4496
lhand -34.1892 14.0305
lfingers 7.12502
lthumb -7.36217 43.8824
rfemur -12.6638 5.53453 29.512
rtibia 45.093
rfoot -20.0502 -9.43834
rtoes -11.3243
lfemur -29.2937 13.7442 -11.8895
ltibia 117.923
lfoot 12.6388 -9.24294
ltoes -9.72816
